<svg xmlns="http://www.w3.org/2000/svg" viewBox="0 0 1240 140" role="img" aria-label="Header papel timbrado União Brasil">
  
  <rect x="0" y="0" width="1240" height="120" fill="#002A7B"></rect>
  
  <rect x="0" y="120" width="1240" height="20" fill="#FFCC00"></rect>

  
  <g transform="translate(40, 28)">
    <circle cx="42" cy="42" r="40" fill="none" stroke="#FFFFFF" stroke-width="1.5"></circle>
    <ellipse cx="42" cy="42" rx="18" ry="40" fill="none" stroke="#FFCC00" stroke-width="2"></ellipse>
    <ellipse cx="42" cy="42" rx="36" ry="40" fill="none" stroke="#FFFFFF" stroke-width="1" opacity="0.6"></ellipse>
    <line x1="2" y1="42" x2="82" y2="42" stroke="#FFCC00" stroke-width="2"></line>
    <line x1="8" y1="22" x2="76" y2="22" stroke="#FFFFFF" stroke-width="1" opacity="0.55"></line>
    <line x1="8" y1="62" x2="76" y2="62" stroke="#FFFFFF" stroke-width="1" opacity="0.55"></line>
    <polygon points="42,28 45,38 55,38 47,45 50,55 42,49 34,55 37,45 29,38 39,38" fill="#FFCC00"></polygon>
  </g>

  
  <g transform="translate(140, 50)" font-family="Inter, sans-serif">
    <text x="0" y="0" font-weight="900" font-size="32" letter-spacing="-0.01em" fill="#FFFFFF">UNIÃO BRASIL</text>
    <text x="0" y="32" font-weight="500" font-size="13" letter-spacing="0.18em" fill="#FFCC00">PARTIDO POLÍTICO · 44</text>
  </g>

  
  <g transform="translate(1100, 78)">
    <text x="0" y="0" font-family="Inter, sans-serif" font-weight="900" font-size="64" fill="#FFCC00" letter-spacing="-0.06em">44</text>
  </g>
</svg>