<svg xmlns="http://www.w3.org/2000/svg" viewBox="0 0 360 90" role="img" aria-label="União Brasil 44">
  
  <g transform="translate(8, 12)">
    <circle cx="33" cy="33" r="32" fill="#002A7B"></circle>
    
    <ellipse cx="33" cy="33" rx="14" ry="32" fill="none" stroke="#FFCC00" stroke-width="1.6" opacity="0.9"></ellipse>
    <ellipse cx="33" cy="33" rx="28" ry="32" fill="none" stroke="#FFCC00" stroke-width="1.2" opacity="0.55"></ellipse>
    
    <line x1="1" y1="33" x2="65" y2="33" stroke="#FFCC00" stroke-width="1.6"></line>
    
    <line x1="6" y1="18" x2="60" y2="18" stroke="#FFCC00" stroke-width="1" opacity="0.7"></line>
    <line x1="6" y1="48" x2="60" y2="48" stroke="#FFCC00" stroke-width="1" opacity="0.7"></line>
    
    <polygon points="33,22 35,30 43,30 36.5,35 39,43 33,38 27,43 29.5,35 23,30 31,30" fill="#FFCC00"></polygon>
  </g>

  
  <g transform="translate(86, 32)" font-family="Inter, -apple-system, sans-serif" font-weight="900" letter-spacing="-0.01em">
    <text x="0" y="0" font-size="22" fill="#002A7B">UNIÃO</text>
    <text x="80" y="0" font-size="22" fill="#FFCC00" stroke="#002A7B" stroke-width="0.4">BRASIL</text>
  </g>

  
  <g transform="translate(86, 62)" font-family="Inter, -apple-system, sans-serif" font-weight="900" letter-spacing="-0.04em">
    <text x="0" y="0" font-size="20" fill="#002A7B" opacity="0.85">44</text>
    <line x1="28" y1="-8" x2="28" y2="2" stroke="#FFCC00" stroke-width="2.5"></line>
    <text x="36" y="0" font-size="11" fill="#52525b" font-weight="500" letter-spacing="0.06em">PARTIDO POLÍTICO</text>
  </g>
</svg>